<?xml version="1.0" standalone="no"?>
<!DOCTYPE svg PUBLIC "-//W3C//DTD SVG 20010904//EN"
 "http://www.w3.org/TR/2001/REC-SVG-20010904/DTD/svg10.dtd">
<svg version="1.0" xmlns="http://www.w3.org/2000/svg"
 width="100.000000pt" height="100.000000pt" viewBox="0 0 100.000000 100.000000"
 preserveAspectRatio="xMidYMid meet">

<g transform="translate(0.000000,100.000000) scale(0.100000,-0.100000)"
fill="#ffffff" stroke="none">
<path d="M218 692 l-177 -287 36 -3 c21 -2 41 2 48 10 14 14 345 555 345 563
0 3 -17 5 -37 5 l-38 0 -177 -288z"/>
<path d="M502 971 c2 -5 82 -135 178 -290 l175 -281 52 0 52 0 -160 243 c-89
133 -175 263 -193 289 -28 43 -35 48 -69 48 -21 0 -37 -4 -35 -9z"/>
<path d="M408 838 c-41 -67 -118 -194 -171 -281 l-97 -157 350 0 349 0 -170
273 c-94 149 -174 276 -179 280 -4 5 -41 -47 -82 -115z"/>s
<path d="M40 330 l0 -50 35 0 35 0 0 50 0 50 -35 0 -35 0 0 -50z"/>
<path d="M130 330 l0 -50 355 0 355 0 0 45 c0 25 5 45 10 45 6 0 10 -20 10
-45 l0 -45 50 0 50 0 0 50 0 50 -415 0 -415 0 0 -50z"/>
<path d="M40 210 l0 -50 460 0 460 0 0 50 0 50 -460 0 -460 0 0 -50z m84 6
c-3 -14 -10 -26 -15 -26 -5 0 -6 7 -4 15 3 8 7 22 10 31 9 27 17 9 9 -20z m71
2 c1 -31 -4 -34 -24 -15 -11 10 -14 10 -18 0 -7 -18 -23 -16 -18 2 3 8 7 22
10 31 3 9 14 14 27 12 17 -2 23 -10 23 -30z m69 -3 c5 -17 1 -20 -24 -20 -35
0 -35 -1 -14 31 18 26 28 23 38 -11z m101 15 c0 -8 -10 -16 -22 -18 -13 -2
-23 -8 -23 -13 0 -5 -4 -9 -10 -9 -5 0 -7 7 -5 15 3 8 7 22 10 31 6 20 50 15
50 -6z m74 11 c10 -6 10 -10 1 -16 -6 -4 -9 -13 -6 -21 3 -8 1 -14 -4 -14 -6
0 -10 5 -10 10 0 6 -7 10 -15 10 -8 0 -15 -4 -15 -10 0 -5 -4 -10 -9 -10 -6 0
-6 12 0 30 11 30 31 38 58 21z m81 -7 c11 -12 11 -18 -2 -30 -14 -14 -15 -13
-11 10 4 19 1 26 -11 26 -23 0 -31 -27 -15 -47 13 -15 12 -15 -8 -4 -27 14
-29 24 -7 45 20 20 38 20 54 0z m75 -4 c0 -8 -10 -16 -22 -18 -13 -2 -23 -8
-23 -13 0 -5 -4 -9 -10 -9 -5 0 -7 7 -5 15 3 8 7 22 10 31 6 20 50 15 50 -6z
m58 13 c-27 -5 -30 -20 -5 -26 13 -4 11 -5 -5 -6 -14 -1 -23 -7 -23 -17 0 -8
-4 -13 -10 -9 -5 3 -7 12 -5 20 3 8 7 22 10 30 3 9 15 14 32 14 24 -2 25 -2 6
-6z m82 -25 c1 -31 -4 -34 -24 -15 -11 10 -14 10 -18 0 -7 -18 -23 -16 -18 2
3 8 7 22 10 31 3 9 14 14 27 12 17 -2 23 -10 23 -30z m61 16 c-9 -8 -16 -22
-16 -30 0 -8 -3 -14 -7 -14 -5 0 -8 14 -8 30 0 25 4 30 23 30 21 0 22 -1 8
-16z m69 6 c21 17 19 3 -4 -26 -17 -21 -19 -22 -25 -6 -3 9 -9 24 -13 32 -5
13 -4 13 10 1 14 -11 20 -11 32 -1z"/>
<path d="M155 230 c-3 -5 3 -10 14 -10 12 0 21 5 21 10 0 6 -6 10 -14 10 -8 0
-18 -4 -21 -10z"/>
<path d="M330 230 c0 -5 7 -10 15 -10 8 0 15 5 15 10 0 6 -7 10 -15 10 -8 0
-15 -4 -15 -10z"/>
<path d="M400 230 c0 -5 7 -10 15 -10 8 0 15 5 15 10 0 6 -7 10 -15 10 -8 0
-15 -4 -15 -10z"/>
<path d="M555 230 c-3 -5 3 -10 15 -10 12 0 18 5 15 10 -3 6 -10 10 -15 10 -5
0 -12 -4 -15 -10z"/>
<path d="M695 230 c-3 -5 3 -10 14 -10 12 0 21 5 21 10 0 6 -6 10 -14 10 -8 0
-18 -4 -21 -10z"/>
<path d="M60 101 c0 -30 4 -40 20 -44 11 -3 20 -1 20 4 0 5 -4 9 -10 9 -5 0
-10 16 -10 35 0 19 -4 35 -10 35 -5 0 -10 -17 -10 -39z"/>
<path d="M190 120 c-26 -26 -16 -47 30 -61 65 -20 124 25 85 65 -23 23 -90 21
-115 -4z m104 -13 c9 -15 7 -21 -8 -33 -27 -19 -49 -18 -77 5 -20 16 -22 21
-10 35 19 22 80 18 95 -7z"/>
<path d="M350 100 c0 -22 5 -40 10 -40 6 0 8 13 5 30 -7 40 5 38 31 -6 22 -39
19 -40 64 16 l20 25 -5 -32 c-3 -19 -1 -33 5 -33 5 0 10 18 10 40 0 51 -19 52
-47 3 l-21 -37 -22 37 c-30 50 -50 49 -50 -3z"/>
<path d="M530 101 c0 -38 2 -41 28 -43 63 -3 91 9 76 34 -5 7 -9 20 -9 28 0
11 -13 16 -47 18 l-48 3 0 -40z m80 19 c0 -5 -8 -14 -17 -19 -16 -9 -16 -10 5
-11 26 0 30 -19 5 -21 -43 -3 -65 7 -44 20 10 6 9 10 -4 15 -9 3 -13 10 -10
16 8 13 65 13 65 0z"/>
<path d="M688 129 c-10 -5 -18 -21 -18 -34 0 -34 64 -54 106 -34 34 17 43 48
18 66 -21 15 -82 17 -106 2z m90 -11 c32 -32 -17 -71 -63 -50 -26 12 -34 47
-12 55 23 10 63 7 75 -5z"/>
<path d="M840 100 c0 -22 5 -40 10 -40 6 0 10 6 10 14 0 25 24 24 58 -2 17
-13 32 -20 32 -14 0 5 -12 17 -26 27 l-26 17 28 19 c39 26 14 24 -30 -2 l-36
-21 0 21 c0 12 -4 21 -10 21 -5 0 -10 -18 -10 -40z"/>
</g>
</svg>
