<?xml version="1.0" standalone="no"?>
<!DOCTYPE svg PUBLIC "-//W3C//DTD SVG 20010904//EN"
 "http://www.w3.org/TR/2001/REC-SVG-20010904/DTD/svg10.dtd">
<svg version="1.0" xmlns="http://www.w3.org/2000/svg"
 width="1024.000000pt" height="1024.000000pt" viewBox="0 0 1024.000000 1024.000000"
 preserveAspectRatio="xMidYMid meet">

<g transform="translate(0.000000,1024.000000) scale(0.100000,-0.100000)"
fill="#254d9f" stroke="none">
<path d="M4766 9125 c-649 -62 -1268 -292 -1786 -663 -634 -454 -1139 -1147
-1384 -1897 -33 -102 -76 -270 -91 -356 -7 -36 -6 -37 32 -44 57 -10 118 -40
168 -81 l45 -36 0 35 c0 45 34 139 69 192 60 89 193 152 301 140 146 -17 258
-122 285 -266 l7 -36 40 20 c58 29 175 35 234 12 58 -22 107 -65 142 -124 23
-40 27 -59 30 -148 3 -71 8 -103 16 -103 7 0 29 18 50 39 113 116 293 105 376
-23 l24 -38 23 28 c32 41 37 71 15 112 l-18 35 80 77 c45 42 140 130 211 196
l130 120 85 -57 c47 -32 145 -87 218 -124 73 -36 130 -71 126 -76 -13 -21
-237 -208 -247 -206 -6 1 -12 -5 -12 -13 -1 -22 -22 -14 -61 26 l-35 35 -61
-53 c-33 -29 -77 -66 -99 -83 -21 -16 -38 -35 -39 -42 0 -7 -6 -10 -14 -7 -15
6 -39 -16 -314 -275 l-153 -144 -64 0 c-63 1 -67 3 -123 48 -31 26 -78 58
-104 71 -65 33 -158 32 -158 -2 0 -9 -15 -4 -47 16 -78 50 -150 72 -248 77
-49 3 -109 0 -132 -5 -38 -9 -44 -7 -65 15 -38 41 -75 55 -121 48 -50 -8 -128
-45 -121 -56 3 -5 -1 -6 -9 -3 -20 7 -88 -73 -129 -151 -18 -36 -36 -65 -40
-65 -17 0 -5 109 18 164 4 12 4 17 -2 13 -6 -3 -32 17 -60 45 -27 28 -76 70
-109 93 -79 57 -216 137 -222 131 -3 -3 -8 -25 -10 -49 l-5 -43 66 -28 c76
-32 191 -132 213 -184 8 -19 12 -36 10 -39 -3 -2 -36 19 -73 48 -73 56 -208
124 -224 114 -6 -3 -10 -28 -10 -54 l0 -48 67 -17 c80 -19 134 -50 189 -106
40 -40 101 -137 92 -145 -2 -3 -21 18 -42 46 -21 27 -58 67 -82 88 -44 38
-146 93 -195 105 -33 7 -37 -4 -40 -133 l-3 -93 71 -19 c89 -22 157 -57 220
-110 68 -59 65 -65 -10 -15 -35 24 -104 58 -153 76 -83 31 -98 34 -214 34
-122 1 -127 0 -192 -32 -110 -54 -199 -146 -278 -286 -19 -32 -29 -57 -24 -54
110 53 156 72 234 98 107 35 270 70 327 70 21 0 63 7 93 15 30 8 82 15 115 15
l60 -1 -68 -29 c-117 -51 -222 -134 -276 -218 -16 -26 -42 -83 -57 -127 -24
-69 -28 -95 -28 -195 0 -82 5 -132 18 -174 l18 -58 44 82 c107 200 347 476
497 570 34 22 63 37 65 35 3 -2 -18 -28 -46 -57 -28 -29 -60 -65 -71 -80 l-21
-26 75 -44 c74 -43 74 -43 75 -86 l0 -43 -30 21 c-16 11 -27 27 -24 34 6 16
-72 46 -118 46 -24 0 -35 -10 -66 -58 -20 -32 -48 -82 -62 -111 -23 -51 -26
-53 -58 -47 -33 5 -33 5 -26 -27 3 -18 27 -95 51 -172 69 -213 194 -486 314
-681 21 -35 39 -68 39 -72 0 -4 -138 -6 -307 -4 -170 1 -325 0 -345 -4 -87
-14 -119 -104 -59 -165 l29 -29 3836 0 c2952 0 3841 3 3861 12 31 14 55 56 55
96 0 38 -41 79 -87 88 -19 4 -156 5 -304 2 -148 -2 -269 -1 -269 2 0 4 17 33
38 66 60 93 165 289 219 409 101 222 185 459 170 474 -16 16 -38 13 -53 -6 -7
-10 -14 -16 -16 -13 -2 3 -18 34 -37 70 -79 152 -91 170 -118 170 -41 0 -106
-22 -91 -31 8 -5 -3 -15 -34 -28 -25 -10 -57 -31 -70 -46 l-25 -27 3 29 c1 15
3 42 4 58 1 27 9 34 68 62 117 56 116 52 52 120 -31 32 -67 71 -80 87 l-25 28
60 -33 c111 -61 209 -133 280 -208 38 -41 99 -104 135 -140 67 -68 136 -164
186 -260 l28 -55 13 31 c7 17 17 62 23 100 31 188 -49 416 -183 524 -57 46
-222 129 -256 129 -11 0 -21 4 -21 9 0 12 112 3 176 -15 28 -8 85 -16 125 -19
126 -7 302 -60 441 -131 l67 -34 -9 26 c-19 50 -102 167 -152 216 -104 101
-197 140 -337 139 -52 0 -97 -4 -100 -9 -3 -6 -46 -17 -95 -25 -49 -8 -92 -21
-97 -29 -5 -7 -9 -10 -9 -6 0 9 -133 -65 -177 -99 -35 -25 -45 -15 -15 15 90
89 197 144 333 169 l92 18 -7 85 c-3 47 -9 127 -12 178 l-7 94 -29 -6 c-53
-10 -175 -73 -243 -125 -38 -28 -72 -51 -77 -51 -4 0 0 17 11 39 40 77 169
175 272 208 37 11 59 23 59 33 0 8 -9 78 -21 155 -116 791 -428 1489 -924
2065 -119 138 -363 371 -495 474 -541 420 -1171 682 -1830 761 -192 23 -540
27 -724 10z m-686 -509 c0 -2 -64 -39 -142 -82 -79 -42 -159 -86 -178 -97 -19
-10 -92 -57 -163 -104 -279 -187 -568 -470 -777 -763 -80 -112 -198 -305 -228
-372 l-21 -48 125 0 c84 0 124 4 124 11 0 6 6 9 14 6 13 -5 20 2 26 28 1 6 7
16 13 23 6 8 11 29 12 48 0 18 7 39 14 46 11 11 12 9 2 -9 -13 -26 -14 -33 -2
-33 8 0 23 32 25 57 1 6 5 15 10 20 5 5 6 2 2 -7 -11 -22 30 28 64 80 17 24
28 50 25 58 -2 7 -1 11 4 8 5 -3 16 5 25 19 9 14 13 25 9 25 -4 0 0 6 9 13 9
6 54 59 100 117 365 454 886 783 1439 908 170 39 290 52 476 52 221 0 358 -20
573 -82 407 -119 817 -361 1127 -667 151 -148 315 -351 340 -419 4 -9 10 -19
14 -22 14 -10 104 -164 130 -222 l24 -56 90 -1 c50 -1 104 3 120 8 29 9 29 9
5 11 -18 2 -20 4 -7 7 9 2 15 8 13 12 -3 4 1 8 9 8 8 0 13 -3 11 -6 -2 -3 2
-12 10 -19 21 -19 17 -6 -17 64 -17 35 -35 61 -40 59 -4 -3 -11 0 -15 6 -4 8
-3 9 4 5 20 -12 14 -1 -50 106 -155 259 -426 567 -668 761 -165 132 -434 304
-634 406 -84 43 -33 34 86 -14 218 -90 346 -163 547 -313 118 -89 366 -325
462 -442 30 -36 56 -67 59 -70 3 -3 33 -43 68 -90 34 -47 74 -100 89 -119 l26
-34 139 7 c119 6 143 5 164 -8 13 -9 24 -21 24 -26 0 -5 -65 -11 -154 -12
l-155 -3 43 -68 c24 -37 67 -118 96 -178 42 -86 51 -115 43 -127 -16 -26 -42
-26 -71 0 -14 12 -22 16 -17 8 4 -8 -2 -5 -14 8 -26 27 -45 28 -69 5 -11 -12
-34 -18 -62 -19 -25 0 -65 -2 -90 -3 -25 -2 -220 0 -435 4 l-390 8 55 -60 c30
-32 66 -83 80 -111 l25 -52 188 2 c120 0 187 4 187 11 0 6 3 8 6 4 3 -3 -2
-27 -12 -52 l-17 -46 -41 8 c-23 4 -79 8 -126 8 -181 0 -317 -85 -393 -247
-21 -43 -37 -84 -37 -91 0 -10 -20 -16 -69 -20 -88 -7 -166 -43 -219 -101 -33
-36 -51 -46 -107 -60 -67 -17 -195 -75 -228 -104 -16 -14 -19 -13 -40 5 -186
165 -617 556 -634 574 -30 33 -52 89 -69 177 -8 42 -16 77 -17 79 -2 1 -13
-42 -25 -96 -33 -144 -30 -141 -367 -446 -55 -49 -125 -113 -155 -141 -30 -27
-85 -76 -122 -108 l-67 -58 -53 25 c-235 110 -292 141 -360 192 -60 44 -80 66
-87 92 -12 42 -72 117 -117 146 -29 19 -34 28 -34 62 -1 56 -43 170 -81 219
-18 23 -36 46 -41 53 -6 7 -4 14 3 19 8 5 10 3 4 -7 -6 -11 -5 -12 6 -1 11 10
10 15 -4 29 -16 16 -17 16 -17 -1 0 -14 -3 -16 -13 -7 -8 6 -17 8 -20 4 -4 -3
-9 2 -13 11 -3 9 -10 13 -15 10 -5 -3 -9 -1 -9 5 0 5 -6 11 -12 14 -7 2 -4 2
7 0 11 -3 28 -5 37 -6 9 -1 16 -4 16 -7 -2 -21 5 -21 22 0 11 14 20 21 19 15
-3 -24 2 -28 14 -10 11 14 16 15 22 5 6 -9 4 -11 -5 -5 -9 5 -11 4 -6 -4 4 -6
12 -9 17 -5 5 3 7 10 4 15 -4 5 -3 9 2 9 4 0 22 12 38 26 l30 27 -160 -8
c-222 -11 -314 -11 -590 5 -247 14 -362 16 -371 7 -5 -5 -94 -207 -94 -213 0
-2 104 -4 231 -4 180 0 230 -3 227 -12 -3 -8 -33 -16 -77 -20 -51 -4 -91 -15
-136 -37 -99 -49 -116 -50 -180 -7 -94 62 -209 72 -296 27 -38 -20 -53 -22
-119 -17 -41 3 -81 5 -87 6 -19 0 -16 24 6 49 12 13 21 17 23 10 3 -9 46 -10
168 -4 l165 7 29 76 c16 43 51 122 77 176 27 54 46 103 42 109 -4 6 -1 7 7 2
10 -6 12 -4 7 9 -4 9 -3 15 2 12 11 -7 74 111 66 124 -4 6 -2 9 4 8 6 -2 21
12 32 30 l21 32 -152 0 -151 0 15 22 c15 21 23 22 166 24 168 1 149 -6 212 84
258 366 658 730 975 889 45 22 129 59 185 81 57 23 112 45 123 50 21 9 45 13
45 6z m3425 -1366 c3 -5 1 -10 -4 -10 -6 0 -11 5 -11 10 0 6 2 10 4 10 3 0 8
-4 11 -10z m-4702 -87 c-7 -2 -21 -2 -30 0 -10 3 -4 5 12 5 17 0 24 -2 18 -5z
m5239 -106 c61 -109 100 -186 144 -293 57 -139 115 -306 116 -336 1 -16 4 -28
7 -28 9 0 33 -91 26 -98 -8 -9 -155 -31 -207 -31 -36 -1 -48 3 -48 14 0 12
-15 15 -82 13 -68 -1 -76 -2 -43 -8 32 -6 28 -7 -19 -4 -32 2 -76 4 -97 4 -29
0 -39 4 -39 16 0 8 -5 12 -10 9 -6 -4 -8 -11 -5 -16 4 -5 0 -9 -8 -9 -9 0 -17
15 -21 38 -8 51 -73 150 -128 195 -24 20 -71 49 -104 64 -52 25 -71 28 -154
28 -56 0 -104 -6 -117 -13 -19 -11 -24 -9 -34 10 -6 13 -25 37 -41 55 l-30 31
17 56 c34 109 130 179 245 180 69 1 148 -35 204 -93 l39 -40 17 32 c9 17 33
45 53 61 45 36 123 46 179 23 l36 -15 4 82 c4 74 29 156 47 156 3 0 27 -37 53
-83z m-4424 6 c-6 -8 -14 -10 -17 -5 -3 5 -13 11 -21 14 -8 3 0 6 17 5 27 0
31 -3 21 -14z m-568 -53 c-30 -17 -72 -49 -92 -71 -40 -44 -49 -45 -22 -3 14
20 14 23 2 19 -9 -3 -21 -17 -28 -31 -7 -13 -17 -24 -21 -24 -15 0 55 90 70
91 24 2 34 4 54 13 15 7 16 11 5 18 -9 6 -4 7 13 4 14 -2 32 0 40 5 8 5 19 9
24 9 6 0 -15 -14 -45 -30z m-220 -40 c0 -5 -5 -10 -11 -10 -5 0 -7 5 -4 10 3
6 8 10 11 10 2 0 4 -4 4 -10z m4258 -45 c-6 -14 -15 -25 -20 -25 -5 0 -1 11 8
25 9 14 18 25 20 25 2 0 -2 -11 -8 -25z m-3734 -25 c65 -25 125 -85 151 -153
13 -35 17 -65 13 -125 l-4 -79 47 -16 c47 -17 99 -60 120 -98 9 -17 2 -28 -52
-77 -34 -31 -97 -90 -140 -129 -43 -40 -82 -73 -88 -73 -6 0 -26 -16 -44 -36
l-33 -37 -65 26 c-94 37 -195 58 -271 56 -61 -2 -70 0 -94 24 -80 81 -174 117
-303 117 l-86 1 -18 38 c-41 90 -156 180 -269 211 -27 7 -48 18 -48 24 1 24
47 92 78 113 105 70 235 12 267 -119 7 -26 11 -28 61 -28 54 0 54 0 70 40 9
22 36 58 61 80 70 61 155 74 244 36 11 -5 21 6 39 45 69 147 219 213 364 159z
m3632 -258 c70 -36 128 -109 164 -206 10 -27 11 -28 29 -12 25 23 133 56 180
56 115 0 225 -78 255 -181 29 -97 32 -94 -96 -94 -104 0 -117 -2 -167 -28 -79
-40 -125 -80 -168 -145 -38 -56 -38 -57 -82 -54 -53 4 -148 -28 -283 -93 -50
-25 -100 -45 -110 -45 -13 0 -17 -4 -12 -12 8 -14 -218 195 -250 231 -11 11
-24 21 -29 21 -12 0 -170 -119 -242 -183 l-50 -44 -55 51 c-30 29 -82 78 -115
109 -69 64 -69 62 35 114 44 22 67 28 118 27 63 -2 63 -2 81 35 25 47 60 85
102 106 49 26 143 31 208 11 30 -9 55 -16 55 -16 1 0 2 28 2 63 3 131 88 261
195 300 61 23 180 17 235 -11z m-1867 -46 c36 -35 111 -104 167 -152 56 -49
206 -183 335 -299 129 -115 288 -257 354 -315 148 -130 299 -269 303 -281 2
-5 -3 -9 -12 -9 -8 0 -19 -7 -24 -16 -7 -13 -13 -12 -43 12 -94 77 -188 168
-183 176 3 4 1 7 -4 6 -17 -5 -73 42 -66 55 4 7 3 9 -1 4 -11 -10 -86 63 -78
76 3 6 1 7 -5 3 -14 -9 -74 43 -65 57 3 6 1 7 -6 3 -15 -9 -203 152 -194 166
3 7 1 8 -6 4 -11 -7 -28 6 -133 106 -16 15 -27 32 -23 37 3 5 0 13 -6 17 -8 4
-9 3 -5 -4 13 -22 -13 -12 -28 10 -9 12 -16 19 -16 15 0 -4 -16 11 -36 33 -20
22 -41 37 -47 33 -6 -3 -7 -1 -3 5 3 6 0 14 -8 19 -16 9 -110 92 -188 165 -48
46 -51 47 -67 29 -9 -10 -47 -47 -86 -81 -38 -35 -88 -80 -110 -99 -86 -78
-236 -211 -355 -316 -69 -60 -141 -124 -160 -141 -19 -17 -114 -102 -210 -189
-96 -86 -192 -170 -214 -186 -40 -30 -67 -30 -44 -1 10 14 10 15 -2 5 -8 -7
-25 -13 -39 -13 l-26 1 31 27 c200 176 877 781 969 866 171 159 257 236 263
236 2 0 34 -29 71 -64z m93 -448 c256 -240 330 -319 314 -335 -4 -4 -11 -1
-16 6 -5 9 -15 11 -26 7 -10 -4 -15 -4 -11 0 11 11 -13 34 -37 35 -11 0 -15 3
-8 6 6 2 10 9 7 13 -3 5 -12 7 -19 4 -9 -3 -13 1 -13 12 1 9 -4 19 -12 22 -9
3 -11 0 -6 -8 6 -9 4 -11 -4 -6 -7 5 -10 14 -7 21 2 7 -3 12 -12 11 -9 0 -16
5 -14 12 1 8 -2 11 -7 8 -5 -4 -17 1 -25 10 -9 8 -16 12 -16 8 0 -3 -21 14
-47 38 -27 25 -74 69 -105 98 -32 29 -55 57 -51 63 4 6 0 8 -10 4 -8 -3 -21 1
-28 9 -6 8 -15 13 -19 12 -8 -3 -80 -67 -290 -258 -146 -134 -187 -164 -218
-166 -14 0 -28 -6 -30 -12 -2 -8 14 -12 52 -12 73 0 106 -13 106 -43 0 -63
102 -201 203 -273 28 -21 75 -57 103 -81 29 -25 61 -43 75 -43 34 0 162 106
385 319 104 99 194 181 199 181 6 0 141 -129 300 -286 160 -157 282 -281 273
-277 -9 4 -92 5 -185 0 -92 -4 -202 -4 -243 -1 -108 9 -302 6 -313 -5 -5 -5
-21 -5 -41 0 -17 5 -103 12 -191 15 -88 3 -179 9 -202 15 -23 5 -72 30 -110
56 -140 97 -181 123 -191 123 -6 0 -13 4 -17 9 -3 6 6 6 25 1 38 -11 31 4 -13
26 -17 9 -65 39 -106 65 -84 55 -118 93 -48 54 29 -17 47 -21 57 -15 11 7 11
10 2 10 -7 0 -10 4 -7 10 4 6 -1 7 -11 3 -13 -5 -15 -3 -9 7 5 8 4 11 -3 6
-14 -8 -52 14 -52 31 0 7 -3 12 -7 11 -7 -3 -24 7 -93 51 -8 5 -28 13 -45 17
-28 7 -26 8 25 18 52 10 63 18 151 106 124 125 462 440 471 440 4 0 81 -69
170 -152z m2393 -97 c22 -10 54 -32 71 -49 34 -34 94 -140 94 -166 0 -28 17
-9 24 27 10 55 66 129 125 164 92 55 185 56 279 2 74 -42 113 -105 137 -221 5
-24 11 -28 54 -34 27 -3 54 -9 60 -13 6 -4 15 -42 21 -84 l10 -77 -48 -43
c-73 -65 -113 -109 -121 -130 -6 -17 -11 -13 -42 26 -71 94 -171 131 -274 103
-61 -17 -153 -35 -281 -56 -39 -6 -93 -22 -120 -34 -56 -27 -145 -96 -138
-108 9 -14 85 -9 204 13 145 27 296 23 380 -10 70 -27 159 -97 201 -158 l33
-48 -60 54 c-116 106 -260 144 -404 107 -36 -9 -66 -21 -68 -25 -2 -5 -11 -7
-21 -4 -10 2 -25 -2 -33 -11 -9 -8 -18 -12 -22 -9 -3 4 -6 2 -6 -4 0 -6 -19
-21 -42 -33 l-42 -22 -18 21 c-16 20 -19 21 -51 8 -18 -8 -55 -31 -82 -51
l-48 -37 -66 63 c-474 452 -444 413 -356 457 66 33 136 37 215 12 35 -11 64
-19 65 -18 0 1 12 16 27 32 26 30 26 31 13 83 -28 107 21 212 124 265 66 33
145 36 206 8z m-2550 -89 c-3 -3 -10 0 -17 6 -9 7 -19 6 -33 -5 -19 -15 -19
-15 5 -8 22 7 23 6 12 -8 -11 -13 -9 -15 13 -13 14 0 25 4 25 9 0 14 35 6 60
-14 14 -11 20 -18 14 -15 -7 3 -24 0 -38 -8 l-27 -14 40 -16 c23 -8 59 -19 81
-22 34 -6 38 -9 28 -21 -13 -16 -61 -43 -76 -43 -5 0 -15 14 -22 31 -7 17 -29
47 -48 68 -20 20 -32 30 -28 23 6 -10 1 -11 -21 -6 -15 4 -31 11 -34 17 -4 6
-8 5 -10 -2 -2 -6 -10 -7 -17 -2 -18 11 -7 33 30 57 29 18 34 19 50 5 9 -8 15
-17 13 -19z m1764 -446 c246 -245 428 -417 461 -438 l55 -34 45 28 c156 99
441 128 620 63 41 -15 93 -37 115 -48 l40 -20 -71 -13 c-132 -22 -192 -48
-282 -123 -73 -61 -127 -158 -148 -268 -8 -41 -14 -77 -14 -80 0 -3 26 17 58
45 93 80 274 206 268 185 -27 -90 -34 -193 -13 -193 44 2 142 31 161 49 12 12
30 21 39 21 20 0 39 -33 31 -54 -6 -16 -72 -50 -154 -80 -70 -26 -128 -87
-132 -139 -3 -32 77 -122 137 -155 45 -25 96 -83 59 -67 -28 12 -83 14 -90 4
-3 -5 -23 7 -45 28 -51 49 -77 62 -117 63 -32 0 -87 -31 -76 -43 3 -3 -5 -13
-19 -22 -14 -9 -28 -27 -31 -40 -6 -23 -7 -23 -53 -9 -51 16 -75 18 -56 6 7
-4 -17 -6 -54 -4 -47 3 -64 1 -59 -7 4 -6 0 -11 -10 -11 -14 0 -15 -2 -3 -17
13 -15 11 -16 -14 -9 -16 4 -26 3 -23 -2 3 -5 -6 -7 -19 -4 -14 2 -25 8 -25
13 0 5 -7 9 -15 9 -18 0 -20 -20 -2 -21 6 0 3 -4 -8 -9 -11 -5 -53 -9 -93 -9
l-74 -1 24 29 c40 49 74 64 134 58 40 -4 56 -2 65 9 45 54 138 56 219 6 l49
-31 -10 25 c-14 39 -11 97 8 124 33 51 68 81 105 90 21 6 43 21 50 33 12 20
21 207 10 207 -2 0 -30 -22 -61 -48 -31 -27 -82 -68 -113 -91 -32 -24 -58 -47
-58 -51 0 -4 11 -38 25 -75 26 -69 28 -87 5 -60 -7 8 -21 15 -31 15 -11 0 -19
7 -19 17 0 15 -1 15 -18 0 -10 -10 -22 -17 -27 -17 -5 0 -2 6 7 13 20 15 6 62
-16 54 -8 -3 -22 3 -33 12 -17 16 -22 16 -38 5 -10 -7 -22 -11 -26 -8 -5 3 -9
-2 -9 -11 0 -10 -7 -15 -17 -13 -13 2 -19 15 -21 45 -3 36 1 44 24 60 18 11
43 17 74 15 l47 -2 6 78 c4 42 9 88 12 102 5 22 0 27 -49 49 -30 13 -92 48
-138 78 -120 80 -207 115 -298 121 -107 6 -152 -9 -214 -71 -28 -28 -54 -52
-58 -53 -5 -1 -13 -2 -18 -3 -7 -1 -7 -8 1 -22 10 -19 7 -19 -27 5 -49 33
-135 36 -194 6 -50 -26 -100 -99 -100 -148 0 -31 -2 -34 -14 -22 -19 21 -36
77 -36 119 0 170 178 280 323 199 l45 -26 17 38 c18 41 108 142 119 135 3 -3
4 -2 2 1 -2 3 -7 5 -11 4 -14 -3 -122 93 -295 263 -102 100 -236 231 -298 290
-63 60 -112 110 -110 112 96 84 172 145 181 145 6 0 193 -182 416 -404z
m-1673 367 c-6 -6 -36 9 -36 18 0 5 9 4 20 -3 10 -7 18 -14 16 -15z m-162 -35
c-9 -18 -25 -43 -34 -55 l-18 -23 -56 46 c-58 48 -72 65 -33 40 19 -12 29 -12
87 8 36 13 66 22 68 20 2 -1 -4 -17 -14 -36z m82 -33 c21 -51 18 -55 -31 -55
-25 0 -45 2 -45 5 0 2 7 23 16 45 20 49 40 51 60 5z m-178 -28 c30 -28 17 -38
-57 -44 -86 -8 -76 -23 15 -23 l75 0 -3 -27 c-2 -23 -13 -31 -63 -51 -55 -22
-60 -23 -72 -6 -32 43 -24 152 14 190 14 13 18 13 42 -2 14 -9 36 -26 49 -37z
m400 20 c21 -57 17 -63 -38 -66 -52 -2 -90 5 -90 17 0 4 20 20 45 35 25 16 45
33 45 38 0 23 27 6 38 -24z m1522 -63 c0 -8 -19 -13 -24 -6 -3 5 1 9 9 9 8 0
15 -2 15 -3z m-1720 -45 l0 -30 -52 3 c-49 3 -53 5 -56 31 -3 27 -2 27 52 27
56 0 56 0 56 -31z m208 6 c7 -6 -5 -48 -20 -67 -12 -17 -16 -16 -63 7 -65 33
-71 40 -54 61 11 13 24 15 73 10 33 -3 61 -8 64 -11z m-360 -86 c3 -17 -75
-70 -93 -63 -32 13 -23 34 23 58 50 27 65 28 70 5z m142 -1 c0 -31 -19 -96
-30 -103 -13 -8 -47 46 -55 88 l-7 37 46 0 c41 0 46 -2 46 -22z m128 -4 c30
-20 30 -54 -2 -54 -31 0 -76 36 -76 62 0 17 4 19 28 13 15 -3 37 -13 50 -21z
m-704 -151 c88 -81 213 -198 276 -260 63 -61 123 -118 134 -126 16 -12 16 -14
2 -14 -9 0 -16 5 -16 11 0 6 -5 4 -10 -4 -8 -13 -10 -12 -10 3 0 10 -4 15 -10
12 -5 -3 -10 -1 -10 5 0 6 -8 10 -17 8 -10 -2 -18 3 -18 12 0 8 -6 15 -13 15
-7 0 -17 7 -22 15 -5 8 -10 11 -10 7 0 -9 2 -10 -97 74 -67 57 -90 81 -61 63
7 -4 8 -3 4 5 -4 6 -11 9 -16 6 -5 -3 -17 5 -27 18 -10 12 -50 48 -89 79 -89
71 -106 87 -99 99 4 5 0 6 -8 3 -9 -3 -21 4 -30 16 -14 20 -15 20 -63 -22 -27
-24 -58 -53 -70 -65 -12 -13 -26 -23 -33 -23 -6 0 -11 -7 -11 -16 0 -14 -3
-14 -15 -4 -13 11 -14 10 -10 -2 4 -10 -20 -38 -71 -84 -42 -38 -94 -87 -115
-109 -23 -24 -47 -40 -63 -40 -15 -1 -39 -14 -55 -29 -16 -15 -33 -28 -38 -27
-4 1 -8 -3 -8 -8 0 -13 -14 -26 -28 -26 -7 -1 -11 -6 -9 -13 1 -7 -8 -12 -20
-12 -18 0 3 26 102 123 222 217 475 456 484 457 4 0 81 -66 170 -147z m-870
92 l-27 -36 23 -16 c13 -9 43 -35 66 -58 41 -41 41 -42 20 -55 -11 -8 -24 -13
-28 -12 -5 1 -8 -5 -8 -13 0 -9 -6 -12 -17 -8 -10 4 -14 2 -10 -4 4 -6 -2 -18
-13 -28 -13 -11 -20 -14 -20 -6 0 7 -4 10 -9 6 -5 -3 -12 -2 -15 3 -2 4 9 14
25 21 16 7 27 16 24 21 -3 4 2 13 10 20 12 10 15 10 15 0 0 -15 7 -11 10 5 1
6 6 15 11 22 17 20 -11 26 -29 6 -25 -27 -183 -167 -298 -264 -59 -50 -98 -91
-96 -99 3 -9 -1 -11 -11 -7 -9 3 -2 -13 18 -39 19 -25 35 -52 35 -60 0 -17 0
-17 36 0 175 87 356 -10 356 -191 0 -54 -21 -125 -40 -137 -5 -3 -7 6 -4 19 5
27 -32 96 -70 132 -59 55 -147 67 -221 30 l-45 -23 -10 22 c-48 104 -187 169
-309 144 -80 -16 -130 -40 -261 -122 -86 -54 -112 -75 -107 -87 26 -66 65
-314 52 -328 -3 -3 -23 8 -44 25 -21 16 -69 47 -108 68 -38 20 -106 63 -150
94 -44 31 -85 59 -92 63 -19 12 -48 -132 -37 -184 9 -41 11 -44 54 -52 25 -5
61 -21 80 -37 19 -15 44 -32 55 -38 20 -12 20 -12 -2 -18 -19 -5 -22 -14 -25
-70 -2 -35 -1 -64 1 -64 3 0 12 6 20 14 9 8 34 19 56 25 36 10 43 8 78 -15 34
-22 39 -23 53 -9 32 32 112 32 160 0 24 -16 84 -91 84 -105 0 -5 -16 -4 -37 0
-20 5 -69 12 -109 15 -41 4 -71 11 -68 16 4 8 -4 11 -26 11 -3 0 -15 -3 -27
-7 -17 -5 -23 -2 -23 10 0 25 -49 38 -122 31 l-68 -6 -1 32 c-2 28 -2 29 -6 8
-3 -14 -9 -29 -15 -35 -7 -7 -8 -3 -4 11 8 27 -16 74 -46 91 -39 21 -72 15
-129 -25 l-54 -38 -18 38 c-15 30 -31 44 -82 68 -56 27 -84 54 -71 67 8 8 129
-36 155 -56 23 -18 24 -18 62 24 22 23 39 51 39 62 0 31 -55 99 -102 126 -24
14 -67 32 -95 42 -29 9 -55 21 -58 26 -9 14 -27 11 -19 -3 4 -7 -3 -4 -15 6
l-22 20 30 29 29 30 39 -30 c40 -33 98 -53 149 -53 30 0 32 2 38 46 3 26 6 73
6 105 l0 59 59 -43 c75 -54 292 -194 312 -202 14 -5 14 1 2 62 -50 250 -247
413 -499 413 -36 0 -63 4 -60 9 7 11 126 59 191 77 89 25 232 35 320 24 110
-15 233 -48 273 -72 17 -11 32 -17 32 -15 0 3 -15 15 -34 27 -19 11 -51 45
-70 74 -41 61 -81 80 -104 49 -12 -17 -14 -17 -45 1 -84 50 -151 78 -209 87
-108 18 -259 -3 -324 -46 -30 -20 -25 -32 6 -15 12 6 24 9 26 7 3 -3 -16 -13
-43 -23 -44 -17 -83 -45 -136 -99 -19 -20 -19 -20 -2 15 28 56 94 128 146 160
120 74 295 92 493 51 118 -25 145 -26 174 -6 20 15 25 14 84 -27 35 -23 102
-80 150 -126 83 -80 89 -84 145 -91 l58 -8 215 206 c277 266 336 317 274 236z
m1337 -11 c11 -26 17 -49 15 -51 -9 -9 -85 9 -96 22 -8 10 -3 20 22 44 18 17
34 31 36 31 1 0 12 -21 23 -46z m189 -14 c0 -6 -44 -30 -55 -30 -8 0 -6 17 5
46 10 26 11 26 30 9 11 -10 20 -21 20 -25z m1276 -112 l29 -33 -32 29 c-31 28
-38 36 -30 36 2 0 16 -15 33 -32z m2279 14 c-6 -5 -32 -17 -60 -27 -111 -40
-175 -87 -246 -181 -23 -30 -44 -53 -46 -50 -2 2 9 30 25 63 29 57 95 128 143
154 60 32 212 66 184 41z m-3755 -155 c0 -11 -34 8 -51 29 -12 16 -10 16 19
-1 17 -11 32 -23 32 -28z m-1385 23 c3 -5 1 -10 -4 -10 -6 0 -11 5 -11 10 0 6
2 10 4 10 3 0 8 -4 11 -10z m-15 -43 c0 -2 -10 -12 -22 -23 l-23 -19 19 23
c18 21 26 27 26 19z m2155 -27 l20 -9 -20 0 c-11 -1 -31 -4 -45 -6 -22 -5 -23
-4 -5 5 16 8 12 9 -22 7 -24 -1 -43 1 -43 5 0 11 90 9 115 -2z m-362 -7 c-7
-2 -19 -2 -25 0 -7 3 -2 5 12 5 14 0 19 -2 13 -5z m165 0 c-10 -2 -28 -2 -40
0 -13 2 -5 4 17 4 22 1 32 -1 23 -4z m687 -11 c-3 -3 -11 0 -18 7 -9 10 -8 11
6 5 10 -3 15 -9 12 -12z m-47 1 c-10 -2 -28 -2 -40 0 -13 2 -5 4 17 4 22 1 32
-1 23 -4z m-1040 -10 c-16 -2 -40 -2 -55 0 -16 2 -3 4 27 4 30 0 43 -2 28 -4z
m185 0 c-24 -2 -62 -2 -85 0 -24 2 -5 4 42 4 47 0 66 -2 43 -4z m710 0 c-40
-2 -107 -2 -150 0 -43 1 -10 3 72 3 83 0 118 -2 78 -3z m-2523 -18 c-7 -9 -15
-13 -19 -10 -3 3 1 10 9 15 21 14 24 12 10 -5z m5337 -31 c-3 -3 -12 -4 -19
-1 -8 3 -5 6 6 6 11 1 17 -2 13 -5z m-4927 -28 c0 -2 -8 -10 -17 -17 -16 -13
-17 -12 -4 4 13 16 21 21 21 13z m1809 -82 c2 -2 -94 -3 -215 -2 -163 1 -197
3 -134 8 81 7 340 2 349 -6z m-1018 -194 c2 -64 3 -69 9 -35 5 30 8 12 10 -70
2 -60 3 -129 4 -151 1 -29 -3 -40 -11 -37 -9 3 -13 -4 -13 -21 0 -14 -4 -26
-10 -26 -6 0 -10 88 -9 248 1 159 4 233 10 207 4 -22 9 -74 10 -115z m-2666
79 c25 -24 25 -81 0 -109 -29 -32 -38 -25 -30 26 5 36 2 52 -14 80 l-21 35 22
-6 c13 -4 32 -16 43 -26z m6126 -5 c-23 -29 -26 -59 -11 -98 8 -21 6 -26 -5
-26 -23 0 -56 61 -50 90 7 30 40 60 67 60 19 0 19 -1 -1 -26z m-4221 -168 c6
-57 6 -95 0 -107 -7 -12 -6 -20 1 -24 6 -4 8 -13 5 -20 -2 -7 1 -18 7 -26 7
-8 2 -7 -13 3 -22 13 -25 24 -28 79 -2 35 0 111 5 169 5 66 9 88 11 60 1 -25
7 -85 12 -134z m109 -22 c1 -120 -8 -224 -20 -224 -11 0 -12 222 -2 340 7 84
7 84 14 35 4 -27 8 -95 8 -151z m760 -101 c1 -83 -3 -133 -9 -133 -6 0 -9 78
-8 218 1 173 3 200 9 132 4 -47 7 -145 8 -217z m379 277 c7 0 12 -15 12 -40
l0 -40 -40 0 c-40 0 -40 0 -40 38 0 45 7 55 35 48 11 -3 26 -6 33 -6z m132
-41 c0 -39 0 -39 -40 -39 -40 0 -40 0 -40 39 0 37 2 40 33 43 44 5 47 2 47
-43z m120 0 c0 -43 -3 -50 -16 -45 -9 3 -27 6 -40 6 -22 0 -24 4 -24 45 l0 45
40 0 40 0 0 -51z m114 16 c9 -46 2 -55 -40 -55 -33 0 -34 1 -34 38 0 46 5 52
41 52 23 0 28 -5 33 -35z m-1294 -15 c0 -36 -2 -40 -25 -40 -22 0 -25 4 -25
40 0 36 3 40 25 40 23 0 25 -4 25 -40z m75 9 c5 -22 3 -34 -6 -40 -27 -17 -44
-5 -47 34 -3 34 -1 37 22 37 19 0 26 -6 31 -31z m119 -1 c7 -37 8 -35 -24 -40
-16 -2 -25 2 -24 10 1 6 2 23 3 37 2 39 37 33 45 -7z m76 -3 c0 -32 -3 -35
-28 -35 -26 0 -28 2 -24 35 3 29 8 35 28 35 21 0 24 -5 24 -35z m1148 -2 c-3
-36 -5 -38 -40 -41 -35 -3 -38 -1 -38 22 0 13 -3 31 -6 40 -5 13 2 16 41 16
l46 0 -3 -37z m-1420 -100 c-2 -31 -7 -39 -25 -41 -21 -3 -23 1 -23 37 0 37 2
41 26 41 23 0 25 -3 22 -37z m72 -3 c0 -36 -2 -40 -25 -40 -22 0 -25 4 -25 40
0 36 3 40 25 40 23 0 25 -4 25 -40z m126 18 c-3 -13 -6 -31 -6 -40 0 -11 -8
-18 -20 -18 -17 0 -20 7 -20 40 0 36 2 40 26 40 22 0 25 -3 20 -22z m74 -2 c0
-37 -10 -56 -31 -56 -15 0 -19 7 -19 40 0 36 3 40 25 40 20 0 25 -5 25 -24z
m910 -115 c0 -126 -1 -129 -22 -133 -57 -10 -58 -7 -58 127 0 133 -1 131 58
134 22 1 22 -1 22 -128z m797 -8 c-2 -27 -3 -5 -3 47 0 52 1 74 3 48 2 -27 2
-69 0 -95z m-1037 92 c0 -34 -1 -35 -40 -35 -39 0 -40 1 -40 35 0 34 1 35 40
35 39 0 40 -1 40 -35z m120 0 c0 -34 -1 -35 -40 -35 -39 0 -40 1 -40 35 0 34
1 35 40 35 39 0 40 -1 40 -35z m238 3 c2 -16 0 -28 -5 -29 -4 0 -23 -2 -40 -5
-32 -4 -33 -3 -33 32 0 35 1 35 38 32 32 -3 37 -7 40 -30z m114 9 c7 -36 -1
-47 -38 -47 -32 0 -34 2 -34 35 0 33 2 35 34 35 27 0 35 -4 38 -23z m-114
-149 l3 -78 -41 0 -40 0 0 78 0 77 38 0 37 0 3 -77z m116 30 c12 -105 11 -108
-34 -108 l-40 0 0 80 0 80 34 0 c33 0 33 -1 40 -52z m-474 -33 l0 -75 -40 0
-40 0 0 75 0 75 40 0 40 0 0 -75z m120 0 l0 -75 -40 0 -40 0 0 75 0 75 40 0
40 0 0 -75z m-2151 45 c42 -12 96 -62 122 -112 l19 -37 56 30 c40 21 70 29
106 29 56 0 80 -10 126 -53 l32 -31 15 21 c8 12 31 31 51 43 43 27 120 24 162
-7 63 -45 94 -170 52 -208 -11 -10 -20 -13 -20 -7 0 7 -6 12 -12 12 -7 1 -22
15 -33 32 -11 17 -32 40 -46 51 -25 18 -28 18 -55 3 l-29 -17 31 6 c23 4 35 1
50 -16 17 -20 17 -22 2 -16 -11 4 -18 2 -18 -7 0 -8 -10 -11 -30 -8 -17 2 -50
-1 -74 -8 l-43 -12 -46 44 c-45 44 -99 68 -153 68 -42 0 -107 -36 -127 -70
-23 -38 -41 -38 -58 1 -25 62 -139 149 -194 149 -21 0 -65 -22 -65 -32 0 -5 5
-6 12 -2 7 4 8 3 4 -4 -4 -6 -14 -8 -23 -5 -14 5 -15 -1 -11 -48 3 -30 9 -62
13 -71 4 -10 3 -18 -2 -18 -11 0 -38 59 -47 101 -8 39 20 121 51 151 53 51
115 67 182 48z m3844 -4 c42 -17 83 -66 98 -116 10 -33 15 -38 30 -30 30 17
102 11 137 -10 46 -28 72 -76 72 -133 0 -48 -24 -102 -41 -91 -5 3 -9 20 -9
37 0 18 -5 39 -10 47 -6 10 -10 11 -10 3 0 -7 -4 -13 -10 -13 -5 0 -7 14 -4
33 5 30 5 31 -10 13 -13 -16 -16 -17 -16 -4 0 19 -27 31 -36 16 -4 -7 -3 -8 4
-4 7 4 12 3 12 -2 0 -6 -11 -9 -25 -8 -28 1 -31 6 -13 24 9 9 9 12 -3 12 -8 0
-20 -9 -27 -21 -8 -13 -19 -18 -29 -15 -13 5 -14 4 -3 -9 10 -12 10 -15 -3
-15 -30 0 -41 28 -29 78 8 37 7 52 -4 72 -8 14 -13 18 -12 10 6 -44 -14 -89
-47 -109 -19 -11 -35 -17 -35 -13 0 4 14 16 32 27 28 16 30 19 13 25 -17 6
-17 7 5 13 13 3 21 9 17 13 -3 4 -25 -1 -48 -10 -28 -11 -45 -14 -52 -7 -6 6
-19 0 -36 -20 -14 -16 -29 -29 -33 -29 -23 0 9 45 52 73 17 11 30 13 40 7 10
-7 11 -10 3 -10 -7 0 -13 -4 -13 -10 0 -5 21 -1 46 8 l47 17 -34 6 c-32 6 -32
6 -6 8 18 1 26 5 21 12 -11 18 -71 3 -118 -31 -43 -31 -66 -65 -66 -98 0 -15
2 -15 10 -2 8 13 10 13 10 -2 0 -9 -6 -19 -12 -21 -10 -4 -9 -8 2 -17 12 -10
12 -11 -5 -4 -11 4 -28 7 -37 8 -9 0 -14 4 -11 9 7 11 -35 55 -69 73 -43 23
-103 18 -148 -12 -22 -15 -40 -33 -40 -41 0 -8 4 -11 10 -8 6 3 7 -1 3 -10 -4
-12 -8 -13 -13 -4 -5 6 -17 9 -29 6 -13 -3 -24 1 -30 10 -4 9 -14 13 -22 11
-8 -3 -22 -1 -31 4 -25 12 -22 0 5 -24 20 -18 20 -19 2 -12 -47 18 -112 16
-152 -5 -22 -11 -43 -27 -46 -36 -4 -8 -12 -15 -18 -15 -8 0 -8 4 1 15 6 8 8
19 4 26 -9 15 -164 4 -175 -12 -4 -7 -13 -8 -20 -4 -8 5 -11 5 -7 0 4 -4 0
-14 -8 -23 -21 -20 -34 -1 -34 50 0 45 44 94 95 104 38 7 97 -9 116 -32 10
-12 15 -6 33 38 16 41 30 57 61 75 65 37 109 30 171 -28 l30 -29 22 29 c40 55
152 67 212 22 l28 -20 21 43 c26 53 48 74 98 92 49 17 86 17 126 0z m-2279
-131 c-4 -8 -7 -15 -9 -15 -2 0 -5 7 -9 15 -3 9 0 15 9 15 9 0 12 -6 9 -15z
m-1661 -12 c-7 -2 -21 -2 -30 0 -10 3 -4 5 12 5 17 0 24 -2 18 -5z m5361 -24
c37 -29 33 -44 -16 -46 -36 -1 -47 -8 -89 -54 -27 -29 -50 -62 -52 -74 -2 -11
-5 8 -6 42 -1 53 3 66 26 94 25 29 73 58 99 59 6 0 23 -9 38 -21z m-6634 -4
c31 -16 50 -43 50 -70 0 -13 -6 -12 -32 8 -52 38 -92 48 -113 29 -14 -13 -16
-14 -10 -2 27 52 55 61 105 35z m2762 -42 c45 -41 -2 -82 -52 -44 -24 17 -30
18 -40 6 -15 -18 -69 -30 -81 -18 -16 16 2 44 35 59 44 19 115 18 138 -3z
m-1397 -13 c-10 -11 -22 -20 -27 -20 -10 0 24 38 36 39 5 1 1 -8 -9 -19z
m3550 9 c18 -8 17 -9 -5 -5 -14 2 -36 0 -50 -5 -24 -8 -24 -9 3 -5 19 2 25 0
18 -7 -5 -5 -22 -7 -36 -3 -22 6 -25 9 -15 21 14 17 55 19 85 4z m-3485 -46
c0 -7 5 -13 10 -13 6 0 10 -5 10 -11 0 -5 -4 -8 -9 -5 -5 3 -11 -1 -15 -9 -3
-10 -18 -15 -43 -14 l-38 2 35 6 c28 5 34 10 35 34 2 27 -8 36 -20 17 -3 -5
-19 -10 -35 -10 -15 0 -31 -5 -33 -10 -3 -6 -4 -5 -3 2 1 7 19 17 39 21 24 6
37 15 37 25 1 15 3 14 15 -2 8 -11 15 -26 15 -33z m157 29 c-21 -10 -35 -21
-31 -25 4 -4 2 -7 -4 -7 -7 0 -12 4 -12 9 0 14 43 40 65 40 13 0 7 -6 -18 -17z
m3383 -13 c0 -6 -4 -7 -10 -4 -5 3 -10 11 -10 16 0 6 5 7 10 4 6 -3 10 -11 10
-16z m-38 -11 c-1 -8 9 -21 23 -28 39 -21 29 -29 -17 -13 -23 8 -53 11 -67 8
-22 -6 -23 -5 -10 11 13 15 12 16 -11 10 -22 -6 -23 -5 -7 5 11 6 35 11 54 11
26 0 32 3 22 10 -12 8 -11 9 1 5 8 -2 14 -11 12 -19z m1652 -3 c-10 -8 -23
-14 -29 -14 -5 -1 1 8 15 19 14 10 27 17 29 14 3 -2 -4 -11 -15 -19z m-4974 5
c0 -5 -5 -10 -11 -10 -5 0 -7 5 -4 10 3 6 8 10 11 10 2 0 4 -4 4 -10z m1317
-2 c56 8 995 6 1066 -3 33 -4 47 -2 42 5 -3 6 3 10 16 10 21 0 22 -1 4 -20
-18 -20 -28 -20 -614 -18 -569 3 -596 4 -599 21 -3 16 -1 17 16 8 13 -7 39 -8
69 -3z m2239 -13 c-11 -8 -25 -15 -30 -15 -6 1 0 7 14 15 32 19 40 18 16 0z
m-3525 -4 c-11 -7 -7 -10 15 -14 26 -4 25 -4 -6 -4 -19 0 -46 -3 -60 -8 -21
-7 -22 -6 -9 7 16 17 37 26 59 27 13 1 13 -1 1 -8z m3469 -1 c-12 -8 -12 -10
-1 -10 8 0 12 -3 8 -6 -9 -9 -28 6 -22 17 4 5 12 9 18 9 7 0 6 -4 -3 -10z
m1271 -324 c-24 -162 -55 -290 -104 -426 -30 -82 -38 -95 -59 -98 l-24 -3 42
128 c44 132 75 267 119 528 37 218 40 225 43 111 2 -62 -5 -153 -17 -240z
m-4008 291 c33 -25 37 -26 64 -12 43 23 90 19 118 -10 14 -13 25 -28 25 -32 0
-4 -21 -7 -47 -7 -68 2 -113 -6 -113 -21 0 -7 -7 -18 -15 -25 -12 -10 -15 -7
-21 14 -3 14 -10 24 -14 21 -5 -3 -14 1 -22 8 -36 36 -148 42 -210 10 -34 -16
-36 -4 -5 24 74 68 174 80 240 30z m2997 13 c0 -5 -2 -10 -4 -10 -3 0 -8 5
-11 10 -3 6 -1 10 4 10 6 0 11 -4 11 -10z m-5250 -77 c64 -335 125 -565 195
-735 5 -13 2 -18 -8 -18 -26 0 -117 293 -158 508 -8 45 -15 60 -21 50 -7 -9
-8 -6 -4 11 3 13 1 31 -3 40 -9 18 -25 201 -17 201 2 0 10 -26 16 -57z m1920
47 c0 -5 -4 -10 -10 -10 -5 0 -10 5 -10 10 0 6 5 10 10 10 6 0 10 -4 10 -10z
m2375 0 c3 -5 1 -10 -4 -10 -6 0 -11 5 -11 10 0 6 2 10 4 10 3 0 8 -4 11 -10z
m-62 -7 c-7 -2 -21 -2 -30 0 -10 3 -4 5 12 5 17 0 24 -2 18 -5z m397 -3 c0 -5
-2 -10 -4 -10 -3 0 -8 5 -11 10 -3 6 -1 10 4 10 6 0 11 -4 11 -10z m-4535 -29
c-6 -5 -25 10 -25 20 0 5 6 4 14 -3 8 -7 12 -15 11 -17z m3575 -7 c167 -16
281 -35 423 -73 129 -34 126 -40 -16 -41 -86 0 -126 3 -122 10 5 7 -3 8 -22 3
-39 -11 -237 -8 -498 7 -214 12 -348 10 -630 -10 -71 -5 -193 -11 -270 -14
-125 -4 -137 -3 -110 9 68 32 246 84 340 100 207 35 579 39 905 9z m607 20
c-3 -3 -12 -4 -19 -1 -8 3 -5 6 6 6 11 1 17 -2 13 -5z m-3175 -70 c35 -19 69
-42 77 -49 12 -12 11 -13 -10 -8 -13 3 -29 10 -36 15 -7 5 -22 6 -35 2 -20 -6
-21 -5 -9 10 12 14 12 16 -3 10 -10 -4 -22 0 -29 9 -7 9 -32 24 -57 32 l-45
16 33 -31 c40 -37 31 -40 -15 -4 -37 28 -41 41 -15 46 27 6 77 -10 144 -48z
m-63 -8 c9 -11 9 -16 -1 -22 -7 -4 -10 -4 -6 1 4 4 3 14 -3 22 -6 7 -9 13 -6
13 2 0 10 -6 16 -14z m3406 -177 c622 -6 1184 -14 1250 -18 l120 -8 -170 -2
c-101 -1 -176 -6 -185 -12 -11 -8 35 -9 160 -6 116 4 160 2 131 -4 -25 -5
-106 -11 -180 -14 -75 -3 -154 -7 -176 -10 -138 -15 -233 -17 -254 -5 -19 10
-25 10 -32 -1 -5 -9 -41 -14 -117 -16 -60 -1 -116 -5 -123 -7 -8 -2 -63 -7
-124 -10 -60 -3 -139 -8 -175 -11 -50 -4 -60 -3 -41 5 33 14 18 25 -16 12 -15
-6 -67 -13 -115 -16 -87 -5 -149 -25 -147 -49 0 -9 2 -9 6 1 5 14 43 17 43 3
0 -14 -47 -23 -155 -31 -63 -4 52 -7 310 -8 526 -2 1231 -21 1360 -36 l100
-13 -140 1 c-77 1 -153 -2 -170 -7 -29 -7 -29 -7 -10 9 19 15 16 16 -44 10
-36 -3 -68 -11 -72 -17 -4 -7 -31 -13 -60 -15 -39 -2 -46 -1 -24 4 l30 8 -40
7 c-59 10 -95 8 -95 -4 0 -7 11 -9 30 -6 16 4 32 2 35 -3 7 -12 1 -13 -92 -10
-46 1 -73 -3 -73 -9 0 -6 -18 -11 -40 -11 -23 0 -40 5 -40 11 0 8 -4 8 -13 1
-21 -17 -275 -26 -982 -34 -88 -1 -149 -4 -135 -6 14 -2 29 -7 33 -11 4 -4
-22 -4 -59 1 -85 12 -117 8 -120 -14 -3 -21 38 -25 82 -8 15 6 41 8 58 4 l31
-8 -30 -8 c-25 -6 -23 -7 12 -4 24 2 46 0 49 -5 3 -5 -19 -9 -48 -10 -29 0
-62 -4 -73 -8 -11 -5 14 -7 60 -6 76 2 77 2 20 -5 -72 -8 -157 -6 1010 -24
468 -7 774 -14 680 -15 -145 -1 -167 -4 -152 -15 16 -12 14 -14 -20 -18 -21
-3 -45 -2 -54 3 -9 5 -34 5 -55 2 -35 -6 -37 -7 -14 -13 14 -4 -2 -6 -35 -5
-33 2 -68 6 -77 10 -22 9 -54 2 -51 -11 1 -7 -36 -11 -101 -11 -56 1 -106 -2
-112 -5 -8 -5 -759 -22 -997 -23 -48 0 -87 -4 -87 -8 0 -4 -71 -7 -157 -6
-111 2 -212 -4 -338 -19 -215 -26 -275 -27 -465 -6 -80 8 -166 16 -192 17 -25
1 -49 5 -53 8 -3 4 -63 5 -133 2 -70 -2 -122 -1 -115 4 6 4 -32 8 -85 9 -466
4 -1003 17 -1032 24 -68 18 -96 21 -80 11 10 -7 -10 -9 -65 -5 -44 3 -125 5
-180 5 -66 0 -93 3 -80 9 14 6 0 9 -49 9 -38 1 -67 3 -64 6 3 3 41 10 84 14
73 8 69 9 -61 8 -77 -1 -203 1 -280 2 -77 2 267 10 765 16 979 14 1273 22
1264 36 -3 5 4 9 15 9 10 0 21 -4 23 -9 2 -5 21 -5 43 -1 l40 8 -37 1 c-20 0
-49 6 -65 12 -15 7 -44 15 -63 20 -24 6 -18 6 20 2 30 -4 116 -8 190 -8 74 -1
189 -5 255 -8 l120 -6 -145 15 c-80 8 -179 15 -221 17 -43 1 -75 5 -72 10 2 4
-42 8 -99 9 -57 1 -128 3 -158 4 -30 1 -251 5 -490 7 -390 5 -778 18 -930 32
-30 2 -94 7 -142 11 -49 3 -88 10 -88 15 0 5 -75 9 -172 9 -94 0 -168 3 -164
7 9 10 896 31 1331 33 243 0 335 4 322 11 -10 6 -24 8 -32 5 -7 -2 -16 2 -19
10 -3 8 -18 14 -34 14 -16 0 -49 7 -73 15 -75 27 -225 44 -484 55 -137 6 -279
12 -315 15 -95 6 -423 20 -437 18 -7 0 -11 3 -8 7 3 5 -12 6 -32 4 -21 -3 -72
-1 -113 4 -54 6 9 8 220 6 200 -1 266 0 205 6 -49 4 -184 9 -300 10 l-210 3
197 9 c180 7 1440 22 2278 26 190 1 854 -3 1475 -9z m-77 -156 c-10 -2 -26 -2
-35 0 -10 3 -2 5 17 5 19 0 27 -2 18 -5z m-3740 -110 c-16 -2 -40 -2 -55 0
-16 2 -3 4 27 4 30 0 43 -2 28 -4z m95 0 c-7 -2 -19 -2 -25 0 -7 3 -2 5 12 5
14 0 19 -2 13 -5z m4837 -3 c0 -5 -4 -10 -10 -10 -5 0 -10 5 -10 10 0 6 5 10
10 10 6 0 10 -4 10 -10z m-1645 -80 c-11 -5 -31 -8 -45 -8 l-25 0 25 8 c14 4
34 8 45 8 l20 1 -20 -9z m-1346 -26 c2 -2 -16 -4 -40 -4 -31 0 -40 3 -29 10
13 8 57 4 69 -6z m-166 -21 c-7 -2 -19 -2 -25 0 -7 3 -2 5 12 5 14 0 19 -2 13
-5z m-1806 -69 c-3 -3 -12 -4 -19 -1 -8 3 -5 6 6 6 11 1 17 -2 13 -5z m5000
-10 c-3 -3 -12 -4 -19 -1 -8 3 -5 6 6 6 11 1 17 -2 13 -5z m40 0 c-3 -3 -12
-4 -19 -1 -8 3 -5 6 6 6 11 1 17 -2 13 -5z"/>
<path d="M4890 8549 c-112 -10 -350 -60 -455 -94 -181 -59 -377 -147 -508
-227 -43 -26 -81 -48 -84 -48 -3 0 -42 -25 -87 -57 -117 -81 -287 -226 -391
-335 -101 -104 -209 -227 -204 -232 2 -1 42 -8 88 -14 102 -14 136 -33 181
-100 34 -50 37 -51 83 -52 26 0 47 3 47 6 0 3 -12 26 -27 52 -34 60 -88 117
-124 133 -16 6 -29 15 -29 19 0 7 58 59 150 132 111 89 301 213 435 285 128
69 421 169 605 208 230 48 503 66 705 46 141 -14 339 -52 445 -85 65 -20 90
-22 182 -18 126 5 231 -14 293 -54 22 -14 31 -23 20 -19 -44 15 -131 24 -167
19 -37 -6 -37 -7 85 -67 218 -107 712 -457 646 -457 -38 0 -105 -58 -137 -117
-17 -34 -32 -66 -32 -72 0 -6 18 -11 44 -11 42 0 45 2 77 54 24 38 45 58 74
71 45 20 64 21 148 11 31 -4 57 -5 57 -2 0 13 -164 201 -260 296 -105 106
-194 182 -325 277 -290 212 -706 386 -1046 438 -131 19 -365 27 -489 14z"/>
<path d="M5000 8194 c36 -7 200 -9 200 -2 0 4 -48 7 -107 7 -60 -1 -101 -3
-93 -5z"/>
<path d="M5225 8190 c-17 -7 -15 -9 12 -9 17 -1 35 4 38 9 7 12 -22 12 -50 0z"/>
<path d="M4868 8183 c12 -2 30 -2 40 0 9 3 -1 5 -23 4 -22 0 -30 -2 -17 -4z"/>
<path d="M4758 8173 c6 -2 18 -2 25 0 6 3 1 5 -13 5 -14 0 -19 -2 -12 -5z"/>
<path d="M5293 8173 c9 -2 23 -2 30 0 6 3 -1 5 -18 5 -16 0 -22 -2 -12 -5z"/>
<path d="M4683 8163 c9 -2 23 -2 30 0 6 3 -1 5 -18 5 -16 0 -22 -2 -12 -5z"/>
<path d="M5420 8161 c25 -9 107 -15 99 -7 -2 2 -31 6 -64 9 -39 4 -51 3 -35
-2z"/>
<path d="M4628 8153 c7 -3 16 -2 19 1 4 3 -2 6 -13 5 -11 0 -14 -3 -6 -6z"/>
<path d="M5560 8131 c14 -4 39 -11 55 -14 l30 -6 -30 14 c-16 8 -41 14 -55 14
l-25 -1 25 -7z"/>
<path d="M4435 8100 c-13 -6 -15 -9 -5 -9 8 0 22 4 30 9 18 12 2 12 -25 0z"/>
<path d="M4350 8070 c-8 -5 -10 -10 -5 -10 6 0 17 5 25 10 8 5 11 10 5 10 -5
0 -17 -5 -25 -10z"/>
<path d="M3098 7470 c-54 -69 -68 -88 -68 -94 0 -3 61 -6 136 -6 l137 0 -7 32
c-9 43 -30 64 -84 82 -66 23 -87 20 -114 -14z"/>
<path d="M6955 7451 c-74 -6 -80 -8 -86 -31 -17 -63 -20 -62 102 -56 61 4 115
9 120 12 24 14 -18 88 -47 82 -5 -1 -45 -4 -89 -7z"/>
<path d="M6849 7327 c-7 -7 -22 -12 -33 -10 -12 2 -57 -3 -101 -10 l-80 -14
82 -7 c64 -6 80 -11 76 -22 -3 -8 1 -14 8 -15 23 -1 63 -9 67 -14 2 -2 -7 -7
-22 -11 -28 -7 -36 -24 -10 -24 8 0 12 -5 9 -10 -4 -6 -3 -10 2 -9 22 4 33 -3
33 -18 0 -15 2 -15 9 -4 8 12 19 12 70 2 62 -12 258 -14 265 -2 5 8 -39 83
-45 77 -2 -2 -5 7 -6 21 0 14 -12 36 -25 48 -21 20 -37 23 -155 29 -104 5
-134 4 -144 -7z m26 -7 c-3 -5 -11 -10 -16 -10 -6 0 -7 5 -4 10 3 6 11 10 16
10 6 0 7 -4 4 -10z m-28 -26 c-3 -3 -12 -4 -19 -1 -8 3 -5 6 6 6 11 1 17 -2
13 -5z"/>
<path d="M3026 7321 c-24 -5 -37 -21 -73 -88 l-43 -81 247 0 c137 1 231 3 211
5 -36 4 -37 4 -17 24 10 10 28 19 38 19 30 0 37 21 13 41 -32 25 -27 36 20 44
34 6 38 9 24 17 -10 6 -27 8 -38 5 -11 -3 -40 0 -64 8 -47 14 -49 13 -34 -15
9 -16 7 -18 -11 -15 -12 3 -24 7 -28 11 -3 4 2 4 12 1 9 -4 17 -2 17 3 0 6 -5
10 -11 10 -5 0 -7 5 -4 10 7 11 -209 12 -259 1z m214 -31 c0 -5 -2 -10 -4 -10
-3 0 -8 5 -11 10 -3 6 -1 10 4 10 6 0 11 -4 11 -10z m115 0 c-3 -5 -12 -10
-18 -10 -7 0 -6 4 3 10 19 12 23 12 15 0z m-158 -62 c-3 -8 -6 -5 -6 6 -1 11
2 17 5 13 3 -3 4 -12 1 -19z m86 -16 c-5 -12 -7 -12 -15 2 -11 20 1 44 12 25
5 -6 6 -19 3 -27z m72 18 c4 -6 -7 -10 -24 -10 -17 0 -31 5 -31 10 0 6 11 10
24 10 14 0 28 -4 31 -10z m-160 -30 c3 -5 1 -10 -4 -10 -6 0 -11 5 -11 10 0 6
2 10 4 10 3 0 8 -4 11 -10z"/>
<path d="M3440 7263 c0 -7 4 -13 9 -13 5 0 11 6 14 13 3 8 -1 14 -9 14 -8 0
-14 -6 -14 -14z"/>
<path d="M7780 6410 c0 -7 -7 -10 -15 -7 -8 4 -17 3 -19 -2 -7 -11 23 -51 38
-51 8 0 17 -11 20 -25 7 -26 26 -35 26 -12 0 9 3 8 9 -2 7 -11 23 -12 87 -4
58 8 68 11 37 12 -31 1 -43 5 -43 16 0 23 115 21 124 -1 4 -10 14 -14 26 -11
13 3 18 1 13 -6 -4 -7 0 -8 11 -4 10 4 24 7 31 7 8 0 20 6 27 14 14 14 72 46
83 46 4 0 3 -9 0 -20 -4 -14 -2 -20 9 -20 14 0 33 37 23 47 -12 11 -87 15 -87
5 0 -7 -12 -10 -32 -7 -18 3 -27 3 -20 -1 19 -9 4 -24 -26 -24 -21 0 -24 -2
-12 -10 8 -5 11 -10 5 -10 -5 0 -17 5 -25 10 -8 5 -10 10 -4 10 7 0 15 7 18
16 4 9 2 13 -5 8 -6 -3 -28 -8 -48 -10 -32 -4 -33 -3 -12 6 13 6 22 12 20 14
-2 3 -36 7 -74 11 -39 4 -96 9 -127 12 -42 4 -58 2 -58 -7z"/>
<path d="M8173 6313 c9 -2 25 -2 35 0 9 3 1 5 -18 5 -19 0 -27 -2 -17 -5z"/>
<path d="M8173 6293 c9 -2 25 -2 35 0 9 3 1 5 -18 5 -19 0 -27 -2 -17 -5z"/>
<path d="M2966 6973 c-6 -14 -5 -15 5 -6 7 7 10 15 7 18 -3 3 -9 -2 -12 -12z"/>
<path d="M2905 6225 l-30 -13 30 -2 c17 -1 24 -4 17 -7 -6 -2 -10 -9 -7 -13 3
-5 15 0 25 10 14 14 33 20 68 20 46 -1 160 -13 232 -26 62 -11 26 5 -56 26
-93 23 -234 26 -279 5z"/>
<path d="M3275 6180 c-3 -6 1 -7 9 -4 18 7 21 14 7 14 -6 0 -13 -4 -16 -10z"/>
<path d="M7088 6043 c7 -3 16 -2 19 1 4 3 -2 6 -13 5 -11 0 -14 -3 -6 -6z"/>
<path d="M5495 6170 c3 -5 16 -15 28 -21 22 -12 22 -12 3 10 -19 21 -43 30
-31 11z"/>
<path d="M4543 5803 c-10 -10 -14 -15 -8 -11 7 4 14 6 17 3 3 -3 11 1 18 10
17 21 -3 19 -27 -2z"/>
<path d="M5622 5714 c2 -13 -3 -19 -14 -18 -10 1 -16 -2 -13 -6 3 -5 -30 -39
-72 -77 -43 -37 -102 -90 -131 -118 -62 -58 -90 -73 -47 -24 l30 34 -32 -29
c-18 -16 -30 -32 -28 -36 5 -7 -34 -47 -41 -42 -11 6 -24 1 -19 -8 3 -6 -1 -7
-9 -4 -9 3 -16 1 -16 -4 0 -6 -10 -14 -22 -17 -13 -4 -32 -15 -43 -25 -11 -10
-27 -20 -35 -23 -8 -3 208 -5 480 -5 272 0 489 2 482 5 -6 2 -10 8 -7 13 3 5
-14 24 -37 43 -58 46 -67 50 -64 30 2 -9 19 -26 40 -36 20 -11 35 -21 32 -24
-2 -3 -14 1 -27 7 -27 15 -333 294 -378 345 -22 26 -31 31 -29 19z"/>
<path d="M5690 5676 c0 -2 8 -10 18 -17 15 -13 16 -12 3 4 -13 16 -21 21 -21
13z"/>
<path d="M5875 5510 c10 -11 20 -20 23 -20 3 0 -3 9 -13 20 -10 11 -20 20 -23
20 -3 0 3 -9 13 -20z"/>
<path d="M5920 5464 c8 -8 23 -20 34 -26 14 -6 11 -1 -8 16 -32 29 -45 34 -26
10z"/>
<path d="M5070 5920 c0 -5 4 -10 9 -10 6 0 13 5 16 10 3 6 -1 10 -9 10 -9 0
-16 -4 -16 -10z"/>
<path d="M6770 5347 c0 -2 15 -16 33 -33 l32 -29 -29 33 c-28 30 -36 37 -36
29z"/>
<path d="M6909 5209 c40 -38 75 -68 77 -66 5 5 -133 137 -143 137 -4 0 25 -32
66 -71z"/>
<path d="M7745 5080 c-126 -14 -345 -64 -345 -79 0 -3 32 -28 71 -56 83 -58
129 -107 129 -138 0 -18 5 -15 27 18 53 80 97 126 155 165 62 41 166 79 222
81 29 1 29 2 -9 10 -48 9 -154 9 -250 -1z"/>
<path d="M4042 5288 c-7 -7 -12 -16 -12 -21 0 -5 7 -1 16 8 9 9 14 18 12 20
-2 3 -10 -1 -16 -7z"/>
<path d="M4640 5283 c0 -15 2 -16 10 -3 9 14 14 7 11 -13 -1 -5 3 -6 9 -2 8 5
7 11 -1 21 -16 19 -29 18 -29 -3z"/>
<path d="M4686 5251 c-3 -4 4 -17 17 -27 22 -19 22 -19 4 2 -9 11 -14 24 -10
27 3 4 4 7 0 7 -3 0 -8 -4 -11 -9z"/>
<path d="M3950 5205 c-7 -8 -8 -15 -2 -15 5 0 15 7 22 15 7 8 8 15 2 15 -5 0
-15 -7 -22 -15z"/>
<path d="M4737 5189 c7 -7 15 -10 18 -7 3 3 -2 9 -12 12 -14 6 -15 5 -6 -5z"/>
<path d="M3905 5170 c-15 -17 -16 -20 -3 -20 19 0 42 26 30 34 -5 3 -17 -3
-27 -14z"/>
<path d="M3625 5340 c-3 -5 -1 -10 4 -10 6 0 11 5 11 10 0 6 -2 10 -4 10 -3 0
-8 -4 -11 -10z"/>
<path d="M2278 5069 c64 -12 149 -62 221 -129 35 -33 66 -60 68 -60 2 0 34 23
71 51 36 28 77 56 89 62 50 22 18 35 -165 67 -114 20 -382 29 -284 9z"/>
<path d="M2141 4274 c0 -11 3 -14 6 -6 3 7 2 16 -1 19 -3 4 -6 -2 -5 -13z"/>
<path d="M3677 4386 c-4 -10 -1 -13 9 -9 7 3 14 9 14 14 0 14 -17 10 -23 -5z"/>
<path d="M6406 4431 c-3 -4 3 -7 12 -8 9 -1 29 -4 45 -7 15 -2 25 0 22 4 -3 5
-13 6 -22 3 -9 -4 -14 -2 -11 3 4 5 -5 10 -18 10 -13 1 -26 -1 -28 -5z"/>
<path d="M6265 4409 c-4 -6 -5 -12 -2 -15 2 -3 7 2 10 11 7 17 1 20 -8 4z"/>
<path d="M6295 4410 c-3 -6 1 -7 9 -4 18 7 21 14 7 14 -6 0 -13 -4 -16 -10z"/>
<path d="M6275 4380 c-8 -13 5 -13 25 0 13 8 13 10 -2 10 -9 0 -20 -4 -23 -10z"/>
<path d="M7268 4003 c12 -2 30 -2 40 0 9 3 -1 5 -23 4 -22 0 -30 -2 -17 -4z"/>
<path d="M3768 3963 c7 -3 16 -2 19 1 4 3 -2 6 -13 5 -11 0 -14 -3 -6 -6z"/>
<path d="M3818 3953 c7 -3 16 -2 19 1 4 3 -2 6 -13 5 -11 0 -14 -3 -6 -6z"/>
<path d="M3938 3953 c12 -2 30 -2 40 0 9 3 -1 5 -23 4 -22 0 -30 -2 -17 -4z"/>
<path d="M4218 3943 c12 -2 30 -2 40 0 9 3 -1 5 -23 4 -22 0 -30 -2 -17 -4z"/>
<path d="M5993 3943 c9 -2 23 -2 30 0 6 3 -1 5 -18 5 -16 0 -22 -2 -12 -5z"/>
<path d="M6488 3943 c7 -3 16 -2 19 1 4 3 -2 6 -13 5 -11 0 -14 -3 -6 -6z"/>
<path d="M4368 3933 c6 -2 18 -2 25 0 6 3 1 5 -13 5 -14 0 -19 -2 -12 -5z"/>
<path d="M4463 3923 c9 -2 25 -2 35 0 9 3 1 5 -18 5 -19 0 -27 -2 -17 -5z"/>
<path d="M5708 3923 c6 -2 18 -2 25 0 6 3 1 5 -13 5 -14 0 -19 -2 -12 -5z"/>
<path d="M4583 3913 c9 -2 23 -2 30 0 6 3 -1 5 -18 5 -16 0 -22 -2 -12 -5z"/>
<path d="M4498 3853 c12 -2 32 -2 45 0 12 2 2 4 -23 4 -25 0 -35 -2 -22 -4z"/>
<path d="M4578 3853 c7 -3 16 -2 19 1 4 3 -2 6 -13 5 -11 0 -14 -3 -6 -6z"/>
<path d="M5528 3853 c7 -3 16 -2 19 1 4 3 -2 6 -13 5 -11 0 -14 -3 -6 -6z"/>
<path d="M2848 3783 c6 -2 18 -2 25 0 6 3 1 5 -13 5 -14 0 -19 -2 -12 -5z"/>
<path d="M5598 3715 c-3 -3 -50 -8 -104 -11 -55 -3 -135 -9 -179 -14 -44 -6
-102 -10 -129 -10 -27 0 -46 -3 -43 -7 10 -9 131 -5 192 6 41 8 251 20 368 21
15 0 27 5 27 10 0 10 -122 14 -132 5z"/>
<path d="M5708 3683 c7 -3 16 -2 19 1 4 3 -2 6 -13 5 -11 0 -14 -3 -6 -6z"/>
<path d="M5613 3653 c9 -2 23 -2 30 0 6 3 -1 5 -18 5 -16 0 -22 -2 -12 -5z"/>
<path d="M7323 3593 c9 -2 23 -2 30 0 6 3 -1 5 -18 5 -16 0 -22 -2 -12 -5z"/>
<path d="M3018 3583 c7 -3 16 -2 19 1 4 3 -2 6 -13 5 -11 0 -14 -3 -6 -6z"/>
<path d="M3200 3580 c41 -5 80 -5 87 -2 7 4 -27 8 -75 9 l-87 1 75 -8z"/>
<path d="M6980 3580 c-12 -8 -11 -10 8 -10 12 0 22 5 22 10 0 13 -11 13 -30 0z"/>
<path d="M7025 3580 c3 -5 8 -10 11 -10 2 0 4 5 4 10 0 6 -5 10 -11 10 -5 0
-7 -4 -4 -10z"/>
<path d="M2938 3563 c7 -3 16 -2 19 1 4 3 -2 6 -13 5 -11 0 -14 -3 -6 -6z"/>
<path d="M3368 3563 c7 -3 16 -2 19 1 4 3 -2 6 -13 5 -11 0 -14 -3 -6 -6z"/>
<path d="M6782 3558 c-9 -3 20 -5 66 -3 46 1 85 5 88 8 8 8 -133 3 -154 -5z"/>
<path d="M6968 3553 c7 -3 16 -2 19 1 4 3 -2 6 -13 5 -11 0 -14 -3 -6 -6z"/>
<path d="M3945 5880 c3 -5 11 -10 16 -10 6 0 7 5 4 10 -3 6 -11 10 -16 10 -6
0 -7 -4 -4 -10z"/>
<path d="M4764 3096 c-80 -18 -116 -38 -177 -94 -57 -54 -91 -116 -112 -204
-18 -78 -21 -538 -4 -620 25 -119 102 -218 207 -270 63 -31 72 -33 177 -33
100 0 115 2 161 27 99 52 158 120 196 226 18 50 21 87 25 307 6 293 -1 360
-52 462 -79 161 -244 239 -421 199z m184 -233 c30 -19 54 -43 69 -73 22 -43
23 -54 23 -301 1 -287 -4 -314 -66 -368 -109 -96 -273 -40 -314 108 -5 20 -10
135 -10 257 0 252 8 299 63 353 69 66 153 75 235 24z"/>
<path d="M1177 3093 c-4 -3 -7 -364 -7 -800 0 -752 1 -794 18 -789 9 3 50 13
90 22 l72 17 0 779 0 778 -83 0 c-46 0 -87 -3 -90 -7z"/>
<path d="M1598 3095 c-4 -4 -8 -345 -8 -757 l0 -750 32 7 c18 3 54 11 81 16
l47 11 1 156 c1 87 1 182 0 212 -1 79 10 47 58 -164 22 -98 42 -181 44 -183 4
-3 157 24 163 29 1 2 -20 109 -46 238 -27 129 -56 278 -65 331 l-16 95 35 53
c57 84 81 176 81 306 -1 179 -56 316 -151 371 -38 22 -60 27 -147 31 -56 3
-105 2 -109 -2z m202 -284 c41 -81 32 -207 -19 -292 l-21 -34 0 188 c0 197 3
209 40 138z"/>
<path d="M2276 3088 c-3 -7 -7 -35 -11 -63 -3 -27 -24 -162 -45 -300 -22 -137
-65 -412 -95 -610 -30 -198 -58 -378 -62 -399 l-6 -39 64 7 c35 4 74 10 86 12
23 6 22 1 49 182 l16 112 93 0 92 0 12 -102 c7 -57 15 -114 18 -129 l5 -25 81
10 c81 11 82 11 84 41 2 17 -39 318 -90 670 l-92 640 -98 3 c-73 2 -98 -1
-101 -10z m124 -671 c27 -215 30 -197 -35 -197 -52 0 -55 1 -51 23 3 12 15 94
26 182 12 88 24 180 28 205 l7 45 3 -50 c1 -27 12 -121 22 -208z"/>
<path d="M3220 2460 l0 -640 48 0 c26 0 63 3 83 6 l37 6 -6 187 c-6 221 -1
258 35 272 50 19 129 113 163 196 29 67 34 93 38 183 5 119 -6 189 -44 270
-54 117 -128 160 -276 160 l-78 0 0 -640z m201 363 c31 -64 32 -161 1 -218
-42 -78 -42 -78 -42 98 0 94 4 167 9 167 5 0 20 -21 32 -47z"/>
<path d="M3800 2481 l0 -622 78 3 77 3 5 200 c3 110 7 198 8 195 2 -3 24 -90
50 -194 l47 -189 85 2 c47 1 86 4 88 6 2 2 -14 77 -37 167 -22 90 -51 213 -65
275 l-26 111 35 52 c45 67 67 142 68 238 1 131 -37 245 -105 309 -47 45 -78
54 -200 60 l-108 6 0 -622z m199 390 c27 -37 45 -122 36 -169 -8 -43 -37 -103
-60 -122 -14 -12 -16 1 -15 153 1 92 6 167 10 167 5 0 18 -13 29 -29z"/>
<path d="M5510 2494 l0 -604 85 0 85 0 0 118 c0 64 3 160 6 212 l7 96 58 28
c94 46 153 123 184 243 39 151 -3 348 -93 436 -58 56 -101 70 -224 72 l-108 2
0 -603z m250 272 c11 -54 6 -113 -13 -151 -11 -23 -48 -65 -56 -65 -3 0 -5 42
-4 92 1 51 3 127 3 168 l1 75 28 -32 c19 -20 33 -51 41 -87z"/>
<path d="M6162 2488 l3 -613 105 -6 c58 -3 158 -10 223 -14 l117 -8 0 107 0
106 -67 0 c-38 0 -98 3 -135 7 l-68 6 0 193 0 194 105 0 105 0 0 120 0 120
-105 0 -105 0 0 90 0 90 135 0 135 0 0 110 0 110 -225 0 -225 0 2 -612z"/>
<path d="M6798 3094 c-5 -4 -8 -290 -8 -636 l0 -628 40 0 c22 0 43 -1 48 -2 4
-2 9 48 12 110 l5 113 40 -97 c62 -150 51 -138 130 -146 38 -4 71 -6 72 -4 1
1 -20 81 -46 177 -27 95 -65 235 -85 310 l-36 136 36 39 c96 103 125 286 69
443 -23 66 -80 137 -129 161 -47 22 -136 37 -148 24z m138 -282 c13 -50 -1
-137 -32 -188 l-29 -49 -3 155 c-1 85 0 161 3 170 5 11 13 5 31 -25 13 -22 27
-50 30 -63z"/>
<path d="M7240 2984 c0 -104 2 -115 18 -113 9 1 50 1 90 0 l72 -1 0 -554 0
-553 53 -7 c28 -4 68 -9 87 -12 l35 -6 0 569 0 568 90 1 c59 1 90 6 89 13 -1
6 -2 56 -2 111 l-2 100 -265 0 -265 0 0 -116z"/>
<path d="M7920 3096 c0 -2 9 -32 19 -67 11 -35 59 -199 108 -364 l88 -300 5
-360 5 -359 75 -18 c41 -9 81 -17 88 -18 9 0 12 76 12 350 l0 349 49 163 c27
90 79 260 116 378 36 118 69 223 71 233 5 15 -4 17 -83 17 -48 0 -97 -3 -108
-6 -17 -4 -28 -33 -64 -167 -24 -89 -48 -173 -53 -187 -10 -24 -11 -23 -28 25
-9 28 -34 114 -55 193 l-38 142 -104 0 c-57 0 -103 -2 -103 -4z"/>
<path d="M3750 1331 l0 -209 140 0 140 0 0 54 0 54 -85 0 -85 0 0 155 0 155
-55 0 -55 0 0 -209z"/>
<path d="M4180 1529 c-79 -32 -121 -126 -105 -239 23 -166 205 -217 298 -84
34 49 47 148 27 208 -32 98 -132 150 -220 115z m95 -114 c50 -49 23 -175 -36
-175 -59 0 -83 126 -34 175 13 14 29 25 35 25 6 0 22 -11 35 -25z"/>
<path d="M4490 1329 l0 -210 48 3 47 3 0 112 c0 61 3 109 6 107 4 -2 35 -51
69 -109 34 -58 65 -105 69 -106 3 0 25 -3 48 -5 l42 -5 27 53 c15 29 45 82 68
118 l41 65 3 -117 3 -118 49 0 50 0 0 210 0 210 -48 0 c-56 0 -60 -4 -118 -99
l-38 -63 -13 38 c-6 22 -17 58 -23 82 l-11 42 -49 0 c-53 0 -53 0 -65 -80 -4
-25 -9 -49 -12 -53 -3 -4 -25 24 -50 63 l-45 70 -49 0 -49 0 0 -211z"/>
<path d="M5180 1331 l0 -209 122 5 c81 3 133 9 154 19 64 31 82 128 33 180
-20 21 -20 24 -5 46 22 31 20 90 -4 120 -26 34 -87 48 -204 48 l-96 0 0 -209z
m210 91 c0 -29 -21 -42 -67 -42 -41 0 -43 1 -43 30 0 30 1 30 55 30 46 0 55
-3 55 -18z m18 -161 c5 -31 -12 -41 -75 -41 l-53 0 0 35 0 36 63 -3 c57 -3 62
-5 65 -27z"/>
<path d="M5712 1519 c-25 -13 -55 -39 -70 -62 -24 -36 -27 -50 -27 -127 0 -77
3 -91 27 -127 71 -108 241 -95 298 22 18 37 21 59 18 113 -5 83 -30 136 -79
169 -54 36 -113 40 -167 12z m105 -104 c46 -33 49 -131 5 -165 -34 -27 -57
-25 -81 6 -42 53 -16 174 38 174 9 0 26 -7 38 -15z"/>
<path d="M6077 1533 c-4 -3 -7 -98 -7 -210 l0 -203 50 0 50 0 0 52 c0 37 6 61
23 85 12 18 24 33 27 33 3 0 24 -34 48 -75 24 -41 49 -78 55 -82 5 -3 39 -8
74 -9 47 -2 62 0 57 9 -4 7 -41 60 -81 120 -41 59 -73 111 -71 116 2 5 36 43
76 85 39 42 72 78 72 81 0 3 -29 5 -64 5 l-64 0 -77 -82 -77 -83 5 83 6 82
-48 0 c-26 0 -51 -3 -54 -7z"/>
</g>
</svg>
